ffmpeg version N-122740-g0a629df0a8-20260213 Copyright (c) 2000-2026 the FFmpeg developers
  built with gcc 15.2.0 (crosstool-NG 1.28.0.1_403899e)
  configuration: --prefix=/ffbuild/prefix --pkg-config-flags=--static --pkg-config=pkg-config --cross-prefix=x86_64-w64-mingw32- --arch=x86_64 --target-os=mingw32 --enable-gpl --enable-version3 --disable-debug --disable-w32threads --enable-pthreads --enable-iconv --enable-zlib --enable-libxml2 --enable-libvmaf --enable-fontconfig --enable-libharfbuzz --enable-libfreetype --enable-libfribidi --enable-vulkan --enable-libshaderc --enable-libvorbis --disable-libxcb --disable-xlib --disable-libpulse --enable-opencl --enable-gmp --enable-lzma --enable-liblcevc-dec --enable-amf --enable-libaom --enable-libaribb24 --enable-avisynth --enable-chromaprint --enable-libdav1d --enable-libdavs2 --enable-libdvdread --enable-libdvdnav --disable-libfdk-aac --enable-ffnvcodec --enable-cuda-llvm --enable-frei0r --enable-libgme --enable-libkvazaar --enable-libaribcaption --enable-libass --enable-libbluray --enable-libjxl --enable-libmp3lame --enable-libopus --enable-libplacebo --enable-librist --enable-libssh --enable-libtheora --enable-libvpx --enable-libwebp --enable-libzmq --enable-lv2 --enable-libvpl --enable-openal --enable-liboapv --enable-libopencore-amrnb --enable-libopencore-amrwb --enable-libopenh264 --enable-libopenjpeg --enable-libopenmpt --enable-librav1e --enable-librubberband --enable-schannel --enable-sdl2 --enable-libsnappy --enable-libsoxr --enable-libsrt --enable-libsvtav1 --enable-libtwolame --enable-libuavs3d --disable-libdrm --enable-vaapi --enable-libvidstab --enable-libvvenc --enable-whisper --enable-libx264 --enable-libx265 --enable-libxavs2 --enable-libxvid --enable-libzimg --enable-libzvbi --extra-cflags=-DLIBTWOLAME_STATIC --extra-cxxflags= --extra-libs=-lgomp --extra-ldflags=-pthread --extra-ldexeflags= --cc=x86_64-w64-mingw32-gcc --cxx=x86_64-w64-mingw32-g++ --ar=x86_64-w64-mingw32-gcc-ar --ranlib=x86_64-w64-mingw32-gcc-ranlib --nm=x86_64-w64-mingw32-gcc-nm --extra-version=20260213
  libavutil      60. 25.100 / 60. 25.100
  libavcodec     62. 23.103 / 62. 23.103
  libavformat    62.  9.101 / 62.  9.101
  libavdevice    62.  2.100 / 62.  2.100
  libavfilter    11. 12.100 / 11. 12.100
  libswscale      9.  3.100 /  9.  3.100
  libswresample   6.  2.100 /  6.  2.100
Input #0, rawvideo, from 'fd:':
  Duration: N/A, start: 0.000000, bitrate: 2985984 kb/s
  Stream #0:0: Video: rawvideo (RGB[24] / 0x18424752), rgb24, 1920x1080, 2985984 kb/s, 60 tbr, 60 tbn
Stream mapping:
  Stream #0:0 -> #0:0 (rawvideo (native) -> h264 (libx264))
[libx264 @ 000002077897f180] using cpu capabilities: MMX2 SSE2Fast SSSE3 SSE4.2 AVX FMA3 BMI2 AVX2
[libx264 @ 000002077897f180] profile High, level 4.2, 4:2:0, 8-bit
[libx264 @ 000002077897f180] 264 - core 165 - H.264/MPEG-4 AVC codec - Copyleft 2003-2025 - http://www.videolan.org/x264.html - options: cabac=1 ref=2 deblock=1:0:0 analyse=0x3:0x113 me=hex subme=6 psy=1 psy_rd=1.00:0.00 mixed_ref=1 me_range=16 chroma_me=1 trellis=1 8x8dct=1 cqm=0 deadzone=21,11 fast_pskip=1 chroma_qp_offset=-2 threads=18 lookahead_threads=3 sliced_threads=0 nr=0 decimate=1 interlaced=0 bluray_compat=0 constrained_intra=0 bframes=3 b_pyramid=2 b_adapt=1 b_bias=0 direct=1 weightb=1 open_gop=0 weightp=1 keyint=250 keyint_min=25 scenecut=40 intra_refresh=0 rc_lookahead=30 rc=crf mbtree=1 crf=18.0 qcomp=0.60 qpmin=0 qpmax=69 qpstep=4 ip_ratio=1.40 aq=1:1.00
Output #0, mp4, to 'C:\Projekte\YouTube\VSCode\RisingSeaLevel\sea_level_rise_poland.mp4':
  Metadata:
    encoder         : Lavf62.9.101
  Stream #0:0: Video: h264 (avc1 / 0x31637661), yuv420p(tv, progressive), 1920x1080, q=2-31, 60 fps, 15360 tbn
    Metadata:
      encoder         : Lavc62.23.103 libx264
    Side data:
      CPB properties: bitrate max/min/avg: 0/0/0 buffer size: 0 vbv_delay: N/A
